#VRML V2.0 utf8
# 3D model generated by easyeda2kicad.py (https://github.com/uPesy/easyeda2kicad.py)

Shape{
    appearance Appearance {
        material  Material 	{
            diffuseColor 0.11372549019607843 0.11372549019607843 0.11372549019607843
            specularColor 0.058823529411764705 0.058823529411764705 0.058823529411764705
            ambientIntensity 0.2
            transparency 0
            shininess 0.5
        }
    }
    geometry IndexedFaceSet {
        ccw TRUE
        solid FALSE
        coord DEF co Coordinate {
            point [
                -1.2992 -0.4921 0.0, -1.5 -0.4921 0.0, -1.5 -0.3972 0.0, 0.0984 -0.2235 0.0, 0.0416 -0.2235 0.0, 0.0416 -0.1133 0.0, -0.0984 -0.2235 0.0, -0.0984 -0.3022 0.0, -0.1492 -0.3972 0.0, 0.5 -0.1133 0.0, 0.0984 -0.3022 0.0, 0.5 -0.3972 0.0, 0.0416 -0.3972 0.0, -0.078 -0.3972 0.0, -0.078 -0.3022 0.0, 0.0416 -0.3022 0.0, -0.078 0.1723 0.0, -0.139 0.1196 0.0, -0.1492 0.1723 0.0, -0.1431 0.121 0.0, -0.1483 0.1211 0.0, -0.078 0.1196 0.0, -0.0924 0.0899 0.0, -0.1126 0.1112 0.0, -0.0848 0.0597 0.0, -0.078 -0.0015 0.0, -0.0884 0.0373 0.0, -0.1102 0.0081 0.0, -0.1035 0.0136 0.0, -0.0998 0.0176 0.0, -0.1492 -0.003 0.0, -0.1485 -0.003 0.0, -0.1492 -0.1133 0.0, -0.1401 -0.0015 0.0, -0.078 -0.2235 0.0, -0.078 -0.1133 0.0, -0.1217 0.0018 0.0, -0.212 -0.1133 0.0, -0.1634 -0.0015 0.0, -0.1544 -0.0028 0.0, -0.1526 0.1088 0.0, -0.1492 0.109 0.0, -0.1492 0.0092 0.0, -0.212 0.1196 0.0, -0.1555 0.1196 0.0, -0.1772 0.1151 0.0, -0.1999 0.0217 0.0, -0.1772 0.0031 0.0, -0.212 -0.0015 0.0, -0.1638 -0.0015 0.0, -0.1893 0.1076 0.0, -0.1962 0.1011 0.0, -0.1999 0.0964 0.0, -0.1484 0.0091 0.0, -0.1477 0.109 0.0, -0.141 0.0095 0.0, -0.1215 0.1025 0.0, -0.1032 0.0861 0.0, -0.0956 0.0637 0.0, -0.0954 0.0589 0.0, -0.1015 0.0346 0.0, -0.1178 0.0175 0.0, -0.7188 -0.4921 0.0, -0.7188 -0.3972 0.0, -0.4164 -0.4921 0.0, -0.4164 -0.3972 0.0, -0.3013 -0.4921 0.0, -0.3013 -0.3972 0.0, -0.212 -0.4921 0.0, -0.212 -0.3972 0.0, -0.1492 -0.4921 0.0, -0.078 -0.4921 0.0, 0.0416 -0.4921 0.0, 0.5 -0.4921 0.0, 1.5 -0.4921 0.0, -0.7188 -0.1133 0.0, -0.4164 -0.1133 0.0, -0.3013 -0.1133 0.0, -0.7188 -0.0015 0.0, -0.4164 -0.0015 0.0, -0.3013 -0.0015 0.0, 1.5 -0.3972 0.0, 1.5 -0.1133 0.0, 0.5 -0.0015 0.0, 1.5 -0.0015 0.0, 0.5 0.1196 0.0, 1.5 0.1196 0.0, 0.0416 -0.0015 0.0, 0.0416 0.1196 0.0, -0.0712 0.0121 0.0, -0.0712 0.0 0.0, -0.0151 0.0 0.0, -0.0257 0.0121 0.0, -0.0257 0.1181 0.0, -0.0151 0.1181 0.0, -0.3013 0.1196 0.0, -0.2907 0.106 0.0, -0.2907 0.1181 0.0, -0.2241 0.1181 0.0, -0.2241 0.0 0.0, -0.2907 0.0575 0.0, -0.2347 0.0575 0.0, -0.2347 0.0121 0.0, -0.2907 0.0121 0.0, -0.2907 0.0697 0.0, -0.2347 0.0697 0.0, -0.2347 0.106 0.0, -0.2907 0.0 0.0, -0.1906 0.0288 0.0, -0.1906 0.0893 0.0, -0.1718 0.0141 0.0, -0.1715 0.1042 0.0, -0.1603 0.1078 0.0, -0.3733 0.1139 0.0, -0.3945 0.0995 0.0, -0.4164 0.1196 0.0, -0.4066 0.0761 0.0, -0.4088 0.0576 0.0, -0.4022 0.0279 0.0, -0.3851 0.0083 0.0, -0.3358 0.1181 0.0, -0.3547 0.1174 0.0, -0.3613 0.0007 0.0, -0.3485 0.0 0.0, -0.3119 0.0 0.0, -0.3119 0.1181 0.0, -0.5245 0.0 0.0, -0.536 0.0 0.0, -0.4815 0.1181 0.0, -0.7188 0.1196 0.0, -0.5071 0.0379 0.0, -0.4535 0.0379 0.0, -0.4356 0.0 0.0, -0.424 0.0 0.0, -0.48 0.1181 0.0, 0.0416 0.1723 0.0, 0.5 0.1723 0.0, 1.5 0.1723 0.0, -0.7188 0.1723 0.0, -0.4164 0.1723 0.0, -0.3013 0.1723 0.0, -0.212 0.1723 0.0, -0.1492 0.121 0.0, 0.5 0.4921 0.0, 1.5 0.4921 0.0, 1.0984 0.3022 0.0, 1.0984 0.2235 0.0, 0.9016 0.2235 0.0, 0.9016 0.3022 0.0, -1.0984 0.2235 0.0, -1.2992 0.1723 0.0, -1.0984 0.3022 0.0, -1.2992 0.4921 0.0, -0.9016 0.3022 0.0, -0.7188 0.4921 0.0, -0.9016 0.2235 0.0, -1.2992 0.1196 0.0, -1.2992 -0.0015 0.0, -1.2992 -0.1133 0.0, -1.2992 -0.3972 0.0, -0.4164 0.4921 0.0, -0.3013 0.4921 0.0, -0.212 0.4921 0.0, -0.1492 0.4921 0.0, -0.078 0.4921 0.0, 0.0416 0.4921 0.0, -1.5 -0.1133 0.0, -1.5 -0.0015 0.0, -1.5 0.1196 0.0, -1.5 0.1723 0.0, -1.5 0.4921 0.0, 1.3543 -0.3543 1.3976, 1.1969 -0.1969 1.2402, 0.6457 -0.3543 1.3976, 0.8031 -0.1969 1.2402, 1.1969 0.1969 1.2402, 1.3543 0.3543 1.3976, 0.6457 0.3543 1.3976, 0.8031 0.1969 1.2402, 0.8031 0.1969 0.2165, 1.1969 0.1969 0.2165, 0.8031 -0.1969 0.2165, 1.1969 -0.1969 0.2165, 1.5 0.4921 1.3976, 1.5 -0.4921 1.3976, -0.6457 -0.3543 1.3976, -1.5 -0.4921 1.3976, -1.3543 -0.3543 1.3976, -1.5 0.4921 1.3976, -1.3543 0.3543 1.3976, -0.6457 0.3543 1.3976, 0.3543 0.3543 1.3976, -0.3543 0.3543 1.3976, -0.3543 -0.3543 1.3976, 0.3543 -0.3543 1.3976, -0.8031 0.1969 1.2402, -0.8031 0.1969 0.2165, -0.8031 -0.1969 1.2402, -0.8031 -0.1969 0.2165, -1.1969 -0.1969 1.2402, -1.1969 -0.1969 0.2165, -1.1969 0.1969 1.2402, -1.1969 0.1969 0.2165, -1.1969 0.1969 0.2165
            ]
        }
        coordIndex [
            0,1,2,-1,3,4,5,-1,6,7,8,-1,3,9,10,-1,10,9,11,-1,10,11,12,-1,8,7,13,-1,13,7,14,-1,13,14,12,-1,12,14,15,-1,12,15,10,-1,16,17,18,-1,18,17,19,-1,18,19,20,-1,21,22,23,-1,22,21,24,-1,24,21,25,-1,24,25,26,-1,27,28,25,-1,25,28,29,-1,25,29,26,-1,30,31,32,-1,32,31,33,-1,34,32,35,-1,35,32,33,-1,35,33,25,-1,25,33,36,-1,25,36,27,-1,37,38,32,-1,32,38,39,-1,32,39,30,-1,40,41,42,-1,43,44,45,-1,46,47,48,-1,48,47,49,-1,45,50,43,-1,43,50,51,-1,43,51,52,-1,42,41,53,-1,53,41,54,-1,53,54,55,-1,56,57,54,-1,54,57,58,-1,54,58,59,-1,59,60,54,-1,54,60,61,-1,54,61,55,-1,62,63,64,-1,64,63,65,-1,64,65,66,-1,66,65,67,-1,66,67,68,-1,68,67,69,-1,68,69,70,-1,70,69,8,-1,70,8,71,-1,71,8,13,-1,71,13,72,-1,72,13,12,-1,72,12,73,-1,73,12,11,-1,73,11,74,-1,63,75,65,-1,65,75,76,-1,65,76,67,-1,67,76,77,-1,67,77,69,-1,69,77,37,-1,69,37,8,-1,8,37,32,-1,8,32,6,-1,6,32,34,-1,75,78,76,-1,76,78,79,-1,76,79,77,-1,77,79,80,-1,77,80,37,-1,37,80,48,-1,37,48,38,-1,38,48,49,-1,74,11,81,-1,81,11,9,-1,81,9,82,-1,82,9,83,-1,82,83,84,-1,84,83,85,-1,84,85,86,-1,3,5,9,-1,9,5,87,-1,9,87,83,-1,83,87,88,-1,83,88,85,-1,21,89,25,-1,25,89,90,-1,25,90,91,-1,92,89,93,-1,93,89,21,-1,93,21,94,-1,94,21,88,-1,94,88,91,-1,91,88,87,-1,91,87,25,-1,25,87,5,-1,25,5,35,-1,35,5,4,-1,35,4,34,-1,80,95,96,-1,96,95,97,-1,97,95,98,-1,98,95,43,-1,98,43,99,-1,100,101,102,-1,102,103,100,-1,100,103,80,-1,100,80,104,-1,104,80,96,-1,104,96,105,-1,105,96,106,-1,103,107,80,-1,80,107,99,-1,80,99,48,-1,48,99,43,-1,48,43,46,-1,46,43,52,-1,46,52,108,-1,108,52,109,-1,108,109,110,-1,110,109,111,-1,110,111,42,-1,42,111,112,-1,42,112,40,-1,113,114,115,-1,114,116,115,-1,115,116,117,-1,115,117,79,-1,79,117,118,-1,79,118,119,-1,95,120,115,-1,115,120,121,-1,115,121,113,-1,119,122,79,-1,79,122,123,-1,79,123,80,-1,80,123,124,-1,80,124,95,-1,95,124,125,-1,95,125,120,-1,126,79,127,-1,127,79,78,-1,127,78,128,-1,128,78,129,-1,128,129,115,-1,130,131,126,-1,126,131,132,-1,126,132,79,-1,79,132,133,-1,79,133,115,-1,115,133,134,-1,115,134,128,-1,23,17,21,-1,21,17,16,-1,21,16,88,-1,88,16,135,-1,88,135,85,-1,85,135,136,-1,85,136,86,-1,86,136,137,-1,129,138,115,-1,115,138,139,-1,115,139,95,-1,95,139,140,-1,95,140,43,-1,43,140,141,-1,43,141,44,-1,44,141,18,-1,44,18,142,-1,142,18,20,-1,143,144,145,-1,145,144,146,-1,146,144,137,-1,146,137,147,-1,147,137,136,-1,147,136,148,-1,149,150,151,-1,151,150,152,-1,151,152,153,-1,153,152,154,-1,153,154,155,-1,149,138,150,-1,150,138,129,-1,150,129,156,-1,156,129,78,-1,156,78,157,-1,157,78,75,-1,157,75,158,-1,158,75,63,-1,158,63,159,-1,159,63,62,-1,159,62,0,-1,149,155,138,-1,138,155,154,-1,138,154,139,-1,139,154,160,-1,139,160,140,-1,140,160,161,-1,140,161,141,-1,141,161,162,-1,141,162,18,-1,18,162,163,-1,18,163,16,-1,16,163,164,-1,16,164,135,-1,135,164,165,-1,135,165,136,-1,136,165,143,-1,136,143,148,-1,148,143,145,-1,0,2,159,-1,159,2,166,-1,159,166,158,-1,158,166,167,-1,158,167,157,-1,157,167,168,-1,157,168,156,-1,156,168,169,-1,156,169,150,-1,150,169,170,-1,150,170,152,-1,171,172,173,-1,173,172,174,-1,172,171,175,-1,175,171,176,-1,177,178,176,-1,176,178,175,-1,173,174,177,-1,177,174,178,-1,178,179,175,-1,175,179,180,-1,179,181,180,-1,180,181,182,-1,174,181,178,-1,178,181,179,-1,172,182,174,-1,174,182,181,-1,175,180,172,-1,172,180,182,-1,177,176,183,-1,184,185,186,-1,186,185,187,-1,186,187,188,-1,188,187,189,-1,188,189,190,-1,191,188,192,-1,192,188,190,-1,192,190,193,-1,183,176,184,-1,184,176,171,-1,184,171,173,-1,183,188,177,-1,177,188,191,-1,177,191,173,-1,173,191,194,-1,173,194,184,-1,184,194,193,-1,184,193,185,-1,185,193,190,-1,137,144,183,-1,184,74,81,-1,81,82,184,-1,184,82,84,-1,184,84,183,-1,183,84,86,-1,183,86,137,-1,144,143,183,-1,183,143,165,-1,183,165,188,-1,188,165,164,-1,188,164,163,-1,163,162,188,-1,188,162,161,-1,188,161,160,-1,160,154,188,-1,188,154,152,-1,188,152,170,-1,170,169,188,-1,188,169,168,-1,188,168,186,-1,186,168,167,-1,167,166,186,-1,186,166,2,-1,186,2,1,-1,73,74,184,-1,1,0,186,-1,186,0,62,-1,62,64,186,-1,186,64,66,-1,186,66,68,-1,68,70,186,-1,186,70,71,-1,186,71,184,-1,184,71,72,-1,184,72,73,-1,195,196,197,-1,197,196,198,-1,197,198,199,-1,199,198,200,-1,199,200,201,-1,201,200,202,-1,201,202,195,-1,195,202,196,-1,202,200,196,-1,196,200,198,-1,189,201,190,-1,190,201,195,-1,187,199,189,-1,189,199,201,-1,197,185,195,-1,195,185,190,-1,185,197,187,-1,187,197,199,-1,
        ]
    }
}
Shape{
    appearance Appearance {
        material  Material 	{
            diffuseColor 0.5019607843137255 0.5019607843137255 0.0
            specularColor 0.25098039215686274 0.25098039215686274 0.0
            ambientIntensity 0.2
            transparency 0
            shininess 0.5
        }
    }
    geometry IndexedFaceSet {
        ccw TRUE
        solid FALSE
        coord DEF co Coordinate {
            point [
                -1.0984 0.2629 -0.0787, -0.9016 0.2629 -0.0787, -0.9016 0.2478 -0.0757, -1.0984 0.2478 -0.0757, -0.9016 0.235 -0.0672, -1.0984 0.235 -0.0672, -0.9016 0.2265 -0.0544, -1.0984 0.2265 -0.0544, -0.9016 0.2235 -0.0394, -1.0984 0.2235 -0.0394, -1.0984 0.2235 0.0, -0.9016 0.2235 0.0, -1.0984 0.3022 -0.0079, -1.0984 0.3022 0.0, -0.9016 0.3022 -0.0079, -0.9016 0.3022 0.0, -1.0984 0.8386 -0.0079, -0.9016 0.8386 -0.0079, -0.9121 0.878 -0.0079, -0.9409 0.9068 -0.0079, -1.0591 0.9068 -0.0079, -1.0879 0.878 -0.0079, -1.0197 0.9173 -0.0079, -0.9803 0.9173 -0.0079, -0.9803 0.9173 -0.0787, -1.0197 0.9173 -0.0787, -0.9016 0.8386 -0.0787, -1.0984 0.8386 -0.0787, -1.0879 0.878 -0.0787, -1.0591 0.9068 -0.0787, -0.9409 0.9068 -0.0787, -0.9121 0.878 -0.0787, -0.0984 -0.2235 -0.0394, 0.0984 -0.2235 -0.0394, 0.0984 -0.2265 -0.0544, -0.0984 -0.2265 -0.0544, 0.0984 -0.235 -0.0672, -0.0984 -0.235 -0.0672, 0.0984 -0.2478 -0.0757, -0.0984 -0.2478 -0.0757, 0.0984 -0.2629 -0.0787, -0.0984 -0.2629 -0.0787, -0.0984 -0.8386 -0.0787, 0.0984 -0.8386 -0.0787, 0.0879 -0.878 -0.0787, -0.0591 -0.9068 -0.0787, -0.0879 -0.878 -0.0787, -0.0197 -0.9173 -0.0787, 0.0197 -0.9173 -0.0787, 0.0591 -0.9068 -0.0787, 0.0197 -0.9173 -0.0079, -0.0197 -0.9173 -0.0079, 0.0984 -0.3022 -0.0079, -0.0984 -0.3022 -0.0079, 0.0984 -0.8386 -0.0079, -0.0984 -0.8386 -0.0079, -0.0879 -0.878 -0.0079, 0.0591 -0.9068 -0.0079, 0.0879 -0.878 -0.0079, -0.0591 -0.9068 -0.0079, -0.078 -0.3022 0.0, -0.0984 -0.3022 0.0, 0.0416 -0.3022 0.0, 0.0984 -0.3022 0.0, -0.0984 -0.2235 0.0, -0.078 -0.2235 0.0, 0.0416 -0.2235 0.0, 0.0984 -0.2235 0.0, 0.0984 -0.2235 0.0
            ]
        }
        coordIndex [
            0,1,2,-1,0,2,3,-1,3,2,4,-1,3,4,5,-1,5,4,6,-1,5,6,7,-1,7,6,8,-1,7,8,9,-1,10,9,11,-1,11,9,8,-1,12,13,14,-1,14,13,15,-1,16,12,14,-1,14,17,16,-1,16,17,18,-1,16,18,19,-1,20,21,22,-1,22,21,16,-1,22,16,23,-1,23,16,19,-1,24,25,23,-1,23,25,22,-1,26,1,0,-1,0,27,26,-1,26,27,28,-1,26,28,29,-1,30,31,24,-1,24,31,26,-1,24,26,25,-1,25,26,29,-1,10,13,9,-1,9,13,12,-1,9,12,7,-1,7,12,5,-1,3,5,0,-1,0,5,12,-1,0,12,27,-1,27,12,16,-1,26,17,1,-1,1,17,14,-1,1,14,2,-1,2,14,4,-1,6,4,8,-1,8,4,14,-1,8,14,11,-1,11,14,15,-1,17,26,31,-1,17,31,18,-1,18,31,30,-1,18,30,19,-1,19,30,24,-1,19,24,23,-1,27,16,21,-1,27,21,28,-1,28,21,20,-1,28,20,29,-1,29,20,22,-1,29,22,25,-1,32,33,34,-1,32,34,35,-1,35,34,36,-1,35,36,37,-1,37,36,38,-1,37,38,39,-1,39,38,40,-1,39,40,41,-1,41,40,42,-1,42,40,43,-1,42,43,44,-1,45,46,47,-1,47,46,42,-1,47,42,48,-1,48,42,44,-1,48,44,49,-1,50,51,48,-1,48,51,47,-1,52,53,54,-1,54,53,55,-1,54,55,56,-1,57,58,50,-1,50,58,54,-1,50,54,51,-1,51,54,56,-1,51,56,59,-1,60,61,53,-1,60,53,62,-1,62,53,52,-1,62,52,63,-1,32,64,65,-1,32,65,33,-1,33,65,66,-1,33,66,67,-1,42,55,41,-1,41,55,53,-1,41,53,39,-1,39,53,37,-1,35,37,32,-1,32,37,53,-1,32,53,64,-1,64,53,61,-1,67,63,33,-1,33,63,52,-1,33,52,34,-1,34,52,36,-1,38,36,40,-1,40,36,52,-1,40,52,43,-1,43,52,54,-1,50,48,49,-1,50,49,57,-1,57,49,44,-1,57,44,58,-1,58,44,43,-1,58,43,54,-1,47,51,59,-1,47,59,45,-1,45,59,56,-1,45,56,46,-1,46,56,55,-1,46,55,42,-1,
        ]
    }
}
Shape{
    appearance Appearance {
        material  Material 	{
            diffuseColor 0.11372549019607843 0.11372549019607843 0.11372549019607843
            specularColor 0.058823529411764705 0.058823529411764705 0.058823529411764705
            ambientIntensity 0.2
            transparency 0
            shininess 0.5
        }
    }
    geometry IndexedFaceSet {
        ccw TRUE
        solid FALSE
        coord DEF co Coordinate {
            point [
                0.1969 0.1969 1.2402, 0.1969 0.1969 0.2165, 0.1969 -0.1969 1.2402, 0.1969 -0.1969 0.2165, -0.1969 -0.1969 1.2402, -0.1969 -0.1969 0.2165, -0.1969 0.1969 1.2402, -0.1969 0.1969 0.2165, -0.3543 -0.3543 1.3976, -0.3543 0.3543 1.3976, 0.3543 0.3543 1.3976, 0.3543 -0.3543 1.3976, 0.3543 -0.3543 1.3976
            ]
        }
        coordIndex [
            0,1,2,-1,2,1,3,-1,2,3,4,-1,4,3,5,-1,4,5,6,-1,6,5,7,-1,7,5,1,-1,1,5,3,-1,6,7,0,-1,0,7,1,-1,8,4,9,-1,9,4,6,-1,9,6,10,-1,10,6,0,-1,2,11,0,-1,0,11,10,-1,11,2,8,-1,8,2,4,-1,
        ]
    }
}
Shape{
    appearance Appearance {
        material  Material 	{
            diffuseColor 0.5019607843137255 0.5019607843137255 0.0
            specularColor 0.25098039215686274 0.25098039215686274 0.0
            ambientIntensity 0.2
            transparency 0
            shininess 0.5
        }
    }
    geometry IndexedFaceSet {
        ccw TRUE
        solid FALSE
        coord DEF co Coordinate {
            point [
                0.9016 0.2629 -0.0787, 1.0984 0.2629 -0.0787, 1.0984 0.2478 -0.0757, 0.9016 0.2478 -0.0757, 1.0984 0.235 -0.0672, 0.9016 0.235 -0.0672, 1.0984 0.2265 -0.0544, 0.9016 0.2265 -0.0544, 1.0984 0.2235 -0.0394, 0.9016 0.2235 -0.0394, 0.9016 0.2235 0.0, 1.0984 0.2235 0.0, 0.9016 0.3022 -0.0079, 0.9016 0.3022 0.0, 1.0984 0.3022 -0.0079, 1.0984 0.3022 0.0, 0.9016 0.8386 -0.0079, 1.0984 0.8386 -0.0079, 1.0879 0.878 -0.0079, 1.0591 0.9068 -0.0079, 0.9409 0.9068 -0.0079, 0.9121 0.878 -0.0079, 0.9803 0.9173 -0.0079, 1.0197 0.9173 -0.0079, 1.0197 0.9173 -0.0787, 0.9803 0.9173 -0.0787, 1.0984 0.8386 -0.0787, 0.9016 0.8386 -0.0787, 0.9121 0.878 -0.0787, 0.9409 0.9068 -0.0787, 1.0591 0.9068 -0.0787, 1.0879 0.878 -0.0787, 1.0879 0.878 -0.0787
            ]
        }
        coordIndex [
            0,1,2,-1,0,2,3,-1,3,2,4,-1,3,4,5,-1,5,4,6,-1,5,6,7,-1,7,6,8,-1,7,8,9,-1,10,9,11,-1,11,9,8,-1,12,13,14,-1,14,13,15,-1,16,12,14,-1,14,17,16,-1,16,17,18,-1,16,18,19,-1,20,21,22,-1,22,21,16,-1,22,16,23,-1,23,16,19,-1,24,25,23,-1,23,25,22,-1,26,1,0,-1,0,27,26,-1,26,27,28,-1,26,28,29,-1,30,31,24,-1,24,31,26,-1,24,26,25,-1,25,26,29,-1,10,13,9,-1,9,13,12,-1,9,12,7,-1,7,12,5,-1,3,5,0,-1,0,5,12,-1,0,12,27,-1,27,12,16,-1,26,17,1,-1,1,17,14,-1,1,14,2,-1,2,14,4,-1,6,4,8,-1,8,4,14,-1,8,14,11,-1,11,14,15,-1,17,26,31,-1,17,31,18,-1,18,31,30,-1,18,30,19,-1,19,30,24,-1,19,24,23,-1,27,16,21,-1,27,21,28,-1,28,21,20,-1,28,20,29,-1,29,20,22,-1,29,22,25,-1,
        ]
    }
}
Shape{
    appearance Appearance {
        material  Material 	{
            diffuseColor 0.7529411764705882 0.7529411764705882 0.7529411764705882
            specularColor 0.3764705882352941 0.3764705882352941 0.3764705882352941
            ambientIntensity 0.2
            transparency 0
            shininess 0.5
        }
    }
    geometry IndexedFaceSet {
        ccw TRUE
        solid FALSE
        coord DEF co Coordinate {
            point [
                -0.48 0.1181 0.0394, -0.4815 0.1181 0.0394, -0.48 0.1181 0.0, -0.4815 0.1181 0.0, -0.536 -0.0 0.0394, -0.536 0.0 0.0, -0.5245 0.0 0.0394, -0.5245 0.0 0.0, -0.5071 0.0379 0.0394, -0.5071 0.0379 0.0, -0.4535 0.0379 0.0394, -0.4535 0.0379 0.0, -0.4356 -0.0 0.0394, -0.4356 0.0 0.0, -0.424 0.0 0.0394, -0.424 0.0 0.0, -0.5015 0.05 0.0394, -0.4593 0.05 0.0394, -0.4807 0.0951 0.0394, -0.5015 0.05 0.0, -0.4807 0.0951 0.0, -0.4593 0.05 0.0, -0.3485 0.0 0.0394, -0.3119 0.0 0.0394, -0.3485 0.0 0.0, -0.3119 0.0 0.0, -0.3119 0.1181 0.0394, -0.3119 0.1181 0.0, -0.3358 0.1181 0.0394, -0.3358 0.1181 0.0, -0.3733 0.1139 0.0394, -0.3733 0.1139 0.0, -0.3547 0.1174 0.0, -0.3547 0.1174 0.0394, -0.4088 0.0576 0.0394, -0.4088 0.0576 0.0, -0.4066 0.0761 0.0, -0.4066 0.0761 0.0394, -0.3945 0.0995 0.0, -0.3945 0.0995 0.0394, -0.3613 0.0007 0.0, -0.3613 0.0007 0.0394, -0.3851 0.0083 0.0, -0.3851 0.0083 0.0394, -0.4022 0.0279 0.0, -0.4022 0.0279 0.0394, -0.3964 0.0429 0.0394, -0.3867 0.0256 0.0394, -0.3699 0.0151 0.0394, -0.3531 0.0126 0.0394, -0.3361 0.0121 0.0394, -0.3225 0.0121 0.0394, -0.3225 0.106 0.0394, -0.3308 0.106 0.0394, -0.3491 0.1054 0.0394, -0.3671 0.1027 0.0394, -0.3802 0.0964 0.0394, -0.3931 0.0812 0.0394, -0.3982 0.0576 0.0394, -0.3225 0.106 0.0, -0.3225 0.0121 0.0, -0.3308 0.106 0.0, -0.3491 0.1054 0.0, -0.3671 0.1027 0.0, -0.3802 0.0964 0.0, -0.3931 0.0812 0.0, -0.3982 0.0576 0.0, -0.3964 0.0429 -0.0, -0.3867 0.0256 0.0, -0.3699 0.0151 -0.0, -0.3531 0.0126 0.0, -0.3361 0.0121 0.0, -0.2241 0.0 0.0394, -0.2241 0.1181 0.0394, -0.2241 0.0 0.0, -0.2241 0.1181 0.0, -0.2907 0.1181 0.0394, -0.2907 0.1181 0.0, -0.2907 0.106 0.0394, -0.2907 0.106 0.0, -0.2347 0.106 0.0394, -0.2347 0.106 0.0, -0.2347 0.0697 0.0394, -0.2347 0.0697 0.0, -0.2907 0.0697 0.0394, -0.2907 0.0697 0.0, -0.2907 0.0575 0.0394, -0.2907 0.0575 0.0, -0.2347 0.0575 0.0394, -0.2347 0.0575 0.0, -0.2347 0.0121 0.0394, -0.2347 0.0121 0.0, -0.2907 0.0121 0.0394, -0.2907 0.0121 0.0, -0.2907 0.0 0.0394, -0.2907 0.0 0.0, -0.1492 0.121 0.0, -0.1483 0.1211 0.0, -0.1483 0.1211 0.0394, -0.1555 0.1196 0.0, -0.1772 0.1151 0.0394, -0.1772 0.1151 0.0, -0.1893 0.1076 0.0394, -0.1893 0.1076 0.0, -0.1962 0.1011 0.0394, -0.1962 0.1011 0.0, -0.1999 0.0964 0.0394, -0.1999 0.0964 0.0, -0.1906 0.0893 0.0394, -0.1906 0.0893 0.0, -0.1477 0.109 0.0394, -0.1477 0.109 0.0, -0.1492 0.109 0.0, -0.1526 0.1088 0.0394, -0.1526 0.1088 0.0, -0.1603 0.1078 0.0, -0.1603 0.1078 0.0394, -0.1715 0.1042 0.0, -0.1715 0.1042 0.0394, -0.0954 0.0589 0.0394, -0.0954 0.0589 0.0, -0.0956 0.0637 0.0, -0.0956 0.0637 0.0394, -0.1032 0.0861 0.0, -0.1032 0.0861 0.0394, -0.1215 0.1025 0.0, -0.1215 0.1025 0.0394, -0.1484 0.0091 0.0394, -0.1484 0.0091 0.0, -0.141 0.0095 0.0, -0.141 0.0095 0.0394, -0.1178 0.0175 0.0, -0.1178 0.0175 0.0394, -0.1015 0.0346 0.0, -0.1015 0.0346 0.0394, -0.1492 0.0092 0.0, -0.1718 0.0141 0.0394, -0.1718 0.0141 0.0, -0.1906 0.0288 0.0394, -0.1906 0.0288 0.0, -0.1999 0.0217 0.0394, -0.1999 0.0217 0.0, -0.1485 -0.003 0.0394, -0.1485 -0.003 0.0, -0.1492 -0.003 0.0, -0.1544 -0.0028 0.0394, -0.1544 -0.0028 0.0, -0.1634 -0.0015 0.0, -0.1638 -0.0015 0.0394, -0.1638 -0.0015 0.0, -0.1772 0.0031 0.0, -0.1772 0.0031 0.0394, -0.1401 -0.0015 0.0, -0.1217 0.0018 0.0394, -0.1217 0.0018 0.0, -0.1102 0.0081 0.0394, -0.1102 0.0081 0.0, -0.1035 0.0136 0.0394, -0.1035 0.0136 0.0, -0.0998 0.0176 0.0394, -0.0998 0.0176 0.0, -0.0848 0.0597 0.0394, -0.0848 0.0597 0.0, -0.0884 0.0373 0.0, -0.0884 0.0373 0.0394, -0.1431 0.121 0.0, -0.1431 0.121 0.0394, -0.139 0.1196 0.0, -0.1126 0.1112 0.0394, -0.1126 0.1112 0.0, -0.0924 0.0899 0.0, -0.0924 0.0899 0.0394, -0.0151 0.0 0.0394, -0.0151 0.1181 0.0394, -0.0151 0.0 0.0, -0.0151 0.1181 0.0, -0.0257 0.1181 0.0394, -0.0257 0.1181 0.0, -0.0257 0.0121 0.0394, -0.0257 0.0121 0.0, -0.0712 0.0121 0.0394, -0.0712 0.0121 0.0, -0.0712 0.0 0.0394, -0.0712 0.0 0.0, -0.0712 0.0 0.0
            ]
        }
        coordIndex [
            0,1,2,-1,2,1,3,-1,1,4,3,-1,3,4,5,-1,4,6,5,-1,5,6,7,-1,6,8,7,-1,7,8,9,-1,8,10,9,-1,9,10,11,-1,10,12,11,-1,11,12,13,-1,12,14,13,-1,13,14,15,-1,14,0,15,-1,15,0,2,-1,16,4,1,-1,0,17,1,-1,1,17,18,-1,1,18,16,-1,14,12,10,-1,6,4,8,-1,8,4,16,-1,8,16,10,-1,10,16,17,-1,10,17,14,-1,14,17,0,-1,16,18,19,-1,19,18,20,-1,17,16,21,-1,21,16,19,-1,18,17,20,-1,20,17,21,-1,22,23,24,-1,24,23,25,-1,23,26,25,-1,25,26,27,-1,26,28,27,-1,27,28,29,-1,30,31,32,-1,30,32,33,-1,33,32,29,-1,33,29,28,-1,34,35,36,-1,34,36,37,-1,37,36,38,-1,37,38,39,-1,39,38,31,-1,39,31,30,-1,22,24,40,-1,22,40,41,-1,41,40,42,-1,41,42,43,-1,43,42,44,-1,43,44,45,-1,45,44,35,-1,45,35,34,-1,46,47,43,-1,43,47,48,-1,43,48,41,-1,41,48,49,-1,41,49,22,-1,22,49,50,-1,22,50,23,-1,23,50,51,-1,23,51,26,-1,26,51,52,-1,26,52,28,-1,28,52,53,-1,28,53,33,-1,33,53,54,-1,33,54,30,-1,30,54,55,-1,30,55,39,-1,39,55,56,-1,39,56,37,-1,37,56,57,-1,37,57,34,-1,34,57,58,-1,34,58,45,-1,45,58,46,-1,45,46,43,-1,52,51,59,-1,59,51,60,-1,53,52,61,-1,61,52,59,-1,53,61,62,-1,53,62,54,-1,54,62,63,-1,54,63,55,-1,55,63,64,-1,55,64,56,-1,56,64,65,-1,56,65,57,-1,57,65,66,-1,57,66,58,-1,58,66,67,-1,58,67,46,-1,46,67,68,-1,46,68,47,-1,47,68,69,-1,47,69,48,-1,48,69,70,-1,48,70,49,-1,49,70,71,-1,49,71,50,-1,51,50,60,-1,60,50,71,-1,72,73,74,-1,74,73,75,-1,73,76,75,-1,75,76,77,-1,76,78,77,-1,77,78,79,-1,78,80,79,-1,79,80,81,-1,80,82,81,-1,81,82,83,-1,82,84,83,-1,83,84,85,-1,84,86,85,-1,85,86,87,-1,86,88,87,-1,87,88,89,-1,88,90,89,-1,89,90,91,-1,90,92,91,-1,91,92,93,-1,92,94,93,-1,93,94,95,-1,94,72,95,-1,95,72,74,-1,72,94,92,-1,92,90,72,-1,72,90,88,-1,72,88,73,-1,78,76,80,-1,80,76,73,-1,80,73,82,-1,82,73,88,-1,82,88,84,-1,84,88,86,-1,96,97,98,-1,96,98,99,-1,99,98,100,-1,99,100,101,-1,101,100,102,-1,101,102,103,-1,103,102,104,-1,103,104,105,-1,105,104,106,-1,105,106,107,-1,106,108,107,-1,107,108,109,-1,110,111,112,-1,110,112,113,-1,112,114,113,-1,113,114,115,-1,113,115,116,-1,116,115,117,-1,116,117,118,-1,118,117,109,-1,118,109,108,-1,119,120,121,-1,119,121,122,-1,122,121,123,-1,122,123,124,-1,124,123,125,-1,124,125,126,-1,126,125,111,-1,126,111,110,-1,127,128,129,-1,127,129,130,-1,130,129,131,-1,130,131,132,-1,132,131,133,-1,132,133,134,-1,134,133,120,-1,134,120,119,-1,128,127,135,-1,135,127,136,-1,135,136,137,-1,137,136,138,-1,137,138,139,-1,138,140,139,-1,139,140,141,-1,142,143,144,-1,142,144,145,-1,144,146,145,-1,145,146,147,-1,145,147,148,-1,147,149,148,-1,148,149,150,-1,148,150,151,-1,151,150,141,-1,151,141,140,-1,143,142,152,-1,152,142,153,-1,152,153,154,-1,154,153,155,-1,154,155,156,-1,156,155,157,-1,156,157,158,-1,158,157,159,-1,158,159,160,-1,161,162,163,-1,161,163,164,-1,164,163,160,-1,164,160,159,-1,98,97,165,-1,98,165,166,-1,166,165,167,-1,166,167,168,-1,167,169,168,-1,168,169,170,-1,168,170,171,-1,171,170,162,-1,171,162,161,-1,140,138,151,-1,151,138,136,-1,161,164,134,-1,134,164,132,-1,132,164,159,-1,132,159,157,-1,108,106,104,-1,108,104,118,-1,118,104,102,-1,118,102,100,-1,157,155,132,-1,132,155,153,-1,132,153,130,-1,130,153,142,-1,130,142,127,-1,127,142,145,-1,127,145,136,-1,136,145,148,-1,136,148,151,-1,134,119,161,-1,161,119,122,-1,161,122,171,-1,171,122,124,-1,171,124,168,-1,168,124,126,-1,168,126,166,-1,166,126,110,-1,166,110,98,-1,98,110,113,-1,98,113,100,-1,100,113,116,-1,100,116,118,-1,172,173,174,-1,174,173,175,-1,173,176,175,-1,175,176,177,-1,176,178,177,-1,177,178,179,-1,178,180,179,-1,179,180,181,-1,180,182,181,-1,181,182,183,-1,182,172,183,-1,183,172,174,-1,176,173,178,-1,178,173,172,-1,178,172,180,-1,180,172,182,-1,
        ]
    }
}
Shape{
    appearance Appearance {
        material  Material 	{
            diffuseColor 0.11372549019607843 0.11372549019607843 0.11372549019607843
            specularColor 0.058823529411764705 0.058823529411764705 0.058823529411764705
            ambientIntensity 0.2
            transparency 0
            shininess 0.5
        }
    }
    geometry IndexedFaceSet {
        ccw TRUE
        solid FALSE
        coord DEF co Coordinate {
            point [
                -0.4807 0.0951 0.0, -0.4593 0.05 0.0, -0.5015 0.05 0.0, -0.3225 0.106 0.0, -0.3225 0.0121 0.0, -0.3308 0.106 0.0, -0.3361 0.0121 0.0, -0.3491 0.1054 0.0, -0.3531 0.0126 0.0, -0.3671 0.1027 0.0, -0.3699 0.0151 -0.0, -0.3867 0.0256 0.0, -0.3964 0.0429 -0.0, -0.3982 0.0576 0.0, -0.3931 0.0812 0.0, -0.3802 0.0964 0.0, -0.3802 0.0964 0.0
            ]
        }
        coordIndex [
            0,1,2,-1,3,4,5,-1,5,4,6,-1,5,6,7,-1,7,6,8,-1,7,8,9,-1,10,11,8,-1,8,11,12,-1,8,12,13,-1,13,14,8,-1,8,14,15,-1,8,15,9,-1,
        ]
    }
}