M48
; DRILL file {KiCad (7.0.0-0)} date Tuesday, June 13, 2023 at 02:54:44 PM
; FORMAT={-:-/ absolute / metric / decimal}
; #@! TF.CreationDate,2023-06-13T14:54:44-07:00
; #@! TF.GenerationSoftware,Kicad,Pcbnew,(7.0.0-0)
; #@! TF.FileFunction,Plated,1,2,PTH
FMAT,2
METRIC
; #@! TA.AperFunction,Plated,PTH,ViaDrill
T1C0.400
; #@! TA.AperFunction,Plated,PTH,ComponentDrill
T2C0.750
; #@! TA.AperFunction,Plated,PTH,ComponentDrill
T3C0.800
; #@! TA.AperFunction,Plated,PTH,ComponentDrill
T4C0.850
; #@! TA.AperFunction,Plated,PTH,ComponentDrill
T5C0.889
; #@! TA.AperFunction,Plated,PTH,ComponentDrill
T6C0.900
; #@! TA.AperFunction,Plated,PTH,ComponentDrill
T7C1.000
; #@! TA.AperFunction,Plated,PTH,ComponentDrill
T8C1.100
; #@! TA.AperFunction,Plated,PTH,ComponentDrill
T9C2.500
; #@! TA.AperFunction,Plated,PTH,ComponentDrill
T10C3.000
%
G90
G05
T1
X167.64Y-90.2
X172.212Y-90.2
X174.728Y-81.084
X178.054Y-82.042
T2
X124.206Y-98.298
X124.206Y-99.568
X124.206Y-100.838
X131.318Y-98.298
X131.318Y-99.568
X131.318Y-100.838
T3
X100.33Y-107.442
X100.34Y-104.939
X102.87Y-107.442
X102.88Y-104.939
X105.41Y-107.442
X105.42Y-104.939
X106.426Y-98.298
X107.95Y-107.442
X107.96Y-104.939
X110.37Y-81.28
X110.49Y-107.442
X110.5Y-84.619
X110.5Y-104.939
X111.506Y-87.884
X111.506Y-95.504
X112.921Y-81.28
X113.03Y-107.442
X113.04Y-84.619
X113.04Y-104.939
X114.046Y-98.298
X115.472Y-81.28
X115.57Y-107.442
X115.58Y-84.619
X115.58Y-104.939
X116.586Y-87.884
X116.586Y-95.504
X118.023Y-81.28
X118.11Y-107.442
X118.12Y-84.619
X118.12Y-104.939
X120.574Y-81.28
X120.65Y-107.442
X120.66Y-84.619
X120.66Y-104.939
X121.666Y-87.884
X121.666Y-95.504
X123.125Y-81.28
X123.19Y-107.442
X123.2Y-84.619
X123.2Y-104.939
X125.675Y-81.28
X125.73Y-107.442
X125.74Y-84.619
X125.74Y-104.939
X126.492Y-87.884
X126.492Y-95.504
X128.226Y-81.28
X128.27Y-107.442
X128.28Y-84.619
X128.28Y-104.939
X130.777Y-81.28
X130.81Y-107.442
X130.82Y-84.619
X130.82Y-104.939
X133.328Y-81.28
X133.35Y-87.884
X133.35Y-95.504
X133.35Y-107.442
X133.36Y-84.619
X133.36Y-104.939
X135.879Y-81.28
X135.89Y-107.442
X135.9Y-84.619
X135.9Y-104.939
X138.43Y-81.28
X138.43Y-87.884
X138.43Y-95.504
X138.43Y-107.442
X138.44Y-84.619
X138.44Y-104.939
X166.042Y-106.955
X168.608Y-106.974
X168.656Y-81.788
X171.196Y-81.788
X171.196Y-106.955
X183.848Y-85.594
X183.896Y-88.134
X183.896Y-90.674
X183.896Y-93.214
X183.896Y-95.754
X183.896Y-98.294
X183.896Y-100.834
X183.896Y-103.374
X195.834Y-107.95
X202.184Y-80.772
X202.438Y-107.95
T4
X206.248Y-88.154
X206.248Y-90.694
X206.248Y-93.234
X206.248Y-95.774
X206.248Y-98.314
X206.248Y-100.854
T5
X166.099Y-85.54
X166.099Y-103.32
X168.639Y-85.54
X168.639Y-103.32
X171.179Y-85.54
X171.179Y-103.32
T6
X178.368Y-107.964
X180.908Y-107.964
T7
X101.016Y-90.69
X101.016Y-93.23
X101.016Y-95.77
X101.016Y-98.31
X157.734Y-85.384
X157.734Y-87.924
X157.734Y-90.464
X157.734Y-93.004
X157.734Y-95.544
X157.734Y-98.084
X157.734Y-100.624
X157.734Y-103.164
X187.706Y-85.594
X187.706Y-88.134
X187.706Y-90.674
X187.706Y-93.214
X187.706Y-95.754
X187.706Y-98.294
X187.706Y-100.834
X187.706Y-103.374
T8
X106.426Y-101.6
X116.586Y-101.6
X142.494Y-85.344
X142.494Y-87.884
X142.494Y-90.424
X142.494Y-92.964
X142.494Y-95.504
X142.494Y-98.044
X142.494Y-100.584
X142.494Y-103.124
T9
X200.406Y-85.594
X200.406Y-103.374
T10
X191.008Y-84.344
X191.008Y-104.664
X206.248Y-84.344
X206.258Y-104.654
T0
M30
