%TF.GenerationSoftware,KiCad,Pcbnew,(7.0.0-0)*%
%TF.CreationDate,2023-06-13T14:54:43-07:00*%
%TF.ProjectId,ssrov-kicad-openctd,7373726f-762d-46b6-9963-61642d6f7065,rev?*%
%TF.SameCoordinates,Original*%
%TF.FileFunction,Drillmap*%
%TF.FilePolarity,Positive*%
%FSLAX45Y45*%
G04 Gerber Fmt 4.5, Leading zero omitted, Abs format (unit mm)*
G04 Created by KiCad (PCBNEW (7.0.0-0)) date 2023-06-13 14:54:43*
%MOMM*%
%LPD*%
G01*
G04 APERTURE LIST*
%ADD10C,0.100000*%
%ADD11C,0.200000*%
%ADD12C,0.254000*%
G04 APERTURE END LIST*
D10*
X20873498Y-8498126D02*
X20875800Y-10396400D01*
X9652000Y-9855200D02*
X9652000Y-9982200D01*
X20175965Y-11097249D02*
X10098325Y-11103000D01*
X9398000Y-9982200D02*
X9397925Y-10402875D01*
X9398000Y-8915400D02*
X9652000Y-8915400D01*
X9398000Y-9855200D02*
X9652000Y-9855200D01*
X9397925Y-10402875D02*
G75*
G03*
X10098325Y-11103000I700000J-125D01*
G01*
X20175965Y-11097251D02*
G75*
G03*
X20875800Y-10396400I-165J700001D01*
G01*
X9652000Y-8915400D02*
X9652000Y-9042400D01*
X9652000Y-9042400D02*
X9398000Y-9042400D01*
X10098000Y-7797800D02*
G75*
G03*
X9398000Y-8497800I0J-700000D01*
G01*
X10098000Y-7797800D02*
X20173608Y-7798975D01*
X9652000Y-9982200D02*
X9398000Y-9982200D01*
X9398000Y-9042400D02*
X9398000Y-9855200D01*
X20873495Y-8498126D02*
G75*
G03*
X20173608Y-7798975I-699995J-844D01*
G01*
X9398000Y-8915400D02*
X9398000Y-8497800D01*
D11*
D12*
X9526000Y-8487300D02*
X9780000Y-8741300D01*
X9780000Y-8487300D02*
X9526000Y-8741300D01*
X9526000Y-10265300D02*
X9780000Y-10519300D01*
X9780000Y-10265300D02*
X9526000Y-10519300D01*
D11*
X9640544Y-11401476D02*
X9640544Y-11201476D01*
X9640544Y-11201476D02*
X9688163Y-11201476D01*
X9688163Y-11201476D02*
X9716734Y-11211000D01*
X9716734Y-11211000D02*
X9735782Y-11230048D01*
X9735782Y-11230048D02*
X9745306Y-11249095D01*
X9745306Y-11249095D02*
X9754830Y-11287191D01*
X9754830Y-11287191D02*
X9754830Y-11315762D01*
X9754830Y-11315762D02*
X9745306Y-11353857D01*
X9745306Y-11353857D02*
X9735782Y-11372905D01*
X9735782Y-11372905D02*
X9716734Y-11391952D01*
X9716734Y-11391952D02*
X9688163Y-11401476D01*
X9688163Y-11401476D02*
X9640544Y-11401476D01*
X9840544Y-11401476D02*
X9840544Y-11268143D01*
X9840544Y-11306238D02*
X9850068Y-11287191D01*
X9850068Y-11287191D02*
X9859591Y-11277667D01*
X9859591Y-11277667D02*
X9878639Y-11268143D01*
X9878639Y-11268143D02*
X9897687Y-11268143D01*
X9964353Y-11401476D02*
X9964353Y-11268143D01*
X9964353Y-11201476D02*
X9954830Y-11211000D01*
X9954830Y-11211000D02*
X9964353Y-11220524D01*
X9964353Y-11220524D02*
X9973877Y-11211000D01*
X9973877Y-11211000D02*
X9964353Y-11201476D01*
X9964353Y-11201476D02*
X9964353Y-11220524D01*
X10088163Y-11401476D02*
X10069115Y-11391952D01*
X10069115Y-11391952D02*
X10059591Y-11372905D01*
X10059591Y-11372905D02*
X10059591Y-11201476D01*
X10192925Y-11401476D02*
X10173877Y-11391952D01*
X10173877Y-11391952D02*
X10164353Y-11372905D01*
X10164353Y-11372905D02*
X10164353Y-11201476D01*
X10389115Y-11401476D02*
X10389115Y-11201476D01*
X10389115Y-11201476D02*
X10455782Y-11344333D01*
X10455782Y-11344333D02*
X10522449Y-11201476D01*
X10522449Y-11201476D02*
X10522449Y-11401476D01*
X10703401Y-11401476D02*
X10703401Y-11296714D01*
X10703401Y-11296714D02*
X10693877Y-11277667D01*
X10693877Y-11277667D02*
X10674830Y-11268143D01*
X10674830Y-11268143D02*
X10636734Y-11268143D01*
X10636734Y-11268143D02*
X10617687Y-11277667D01*
X10703401Y-11391952D02*
X10684353Y-11401476D01*
X10684353Y-11401476D02*
X10636734Y-11401476D01*
X10636734Y-11401476D02*
X10617687Y-11391952D01*
X10617687Y-11391952D02*
X10608163Y-11372905D01*
X10608163Y-11372905D02*
X10608163Y-11353857D01*
X10608163Y-11353857D02*
X10617687Y-11334810D01*
X10617687Y-11334810D02*
X10636734Y-11325286D01*
X10636734Y-11325286D02*
X10684353Y-11325286D01*
X10684353Y-11325286D02*
X10703401Y-11315762D01*
X10798639Y-11268143D02*
X10798639Y-11468143D01*
X10798639Y-11277667D02*
X10817687Y-11268143D01*
X10817687Y-11268143D02*
X10855782Y-11268143D01*
X10855782Y-11268143D02*
X10874830Y-11277667D01*
X10874830Y-11277667D02*
X10884353Y-11287191D01*
X10884353Y-11287191D02*
X10893877Y-11306238D01*
X10893877Y-11306238D02*
X10893877Y-11363381D01*
X10893877Y-11363381D02*
X10884353Y-11382429D01*
X10884353Y-11382429D02*
X10874830Y-11391952D01*
X10874830Y-11391952D02*
X10855782Y-11401476D01*
X10855782Y-11401476D02*
X10817687Y-11401476D01*
X10817687Y-11401476D02*
X10798639Y-11391952D01*
X10979591Y-11382429D02*
X10989115Y-11391952D01*
X10989115Y-11391952D02*
X10979591Y-11401476D01*
X10979591Y-11401476D02*
X10970068Y-11391952D01*
X10970068Y-11391952D02*
X10979591Y-11382429D01*
X10979591Y-11382429D02*
X10979591Y-11401476D01*
X10979591Y-11277667D02*
X10989115Y-11287191D01*
X10989115Y-11287191D02*
X10979591Y-11296714D01*
X10979591Y-11296714D02*
X10970068Y-11287191D01*
X10970068Y-11287191D02*
X10979591Y-11277667D01*
X10979591Y-11277667D02*
X10979591Y-11296714D01*
X9192925Y-11648000D02*
X9392925Y-11848000D01*
X9392925Y-11648000D02*
X9192925Y-11848000D01*
X9631020Y-11640524D02*
X9640544Y-11631000D01*
X9640544Y-11631000D02*
X9659591Y-11621476D01*
X9659591Y-11621476D02*
X9707211Y-11621476D01*
X9707211Y-11621476D02*
X9726258Y-11631000D01*
X9726258Y-11631000D02*
X9735782Y-11640524D01*
X9735782Y-11640524D02*
X9745306Y-11659572D01*
X9745306Y-11659572D02*
X9745306Y-11678619D01*
X9745306Y-11678619D02*
X9735782Y-11707191D01*
X9735782Y-11707191D02*
X9621496Y-11821476D01*
X9621496Y-11821476D02*
X9745306Y-11821476D01*
X9831020Y-11802429D02*
X9840544Y-11811952D01*
X9840544Y-11811952D02*
X9831020Y-11821476D01*
X9831020Y-11821476D02*
X9821496Y-11811952D01*
X9821496Y-11811952D02*
X9831020Y-11802429D01*
X9831020Y-11802429D02*
X9831020Y-11821476D01*
X10021496Y-11621476D02*
X9926258Y-11621476D01*
X9926258Y-11621476D02*
X9916734Y-11716714D01*
X9916734Y-11716714D02*
X9926258Y-11707191D01*
X9926258Y-11707191D02*
X9945306Y-11697667D01*
X9945306Y-11697667D02*
X9992925Y-11697667D01*
X9992925Y-11697667D02*
X10011972Y-11707191D01*
X10011972Y-11707191D02*
X10021496Y-11716714D01*
X10021496Y-11716714D02*
X10031020Y-11735762D01*
X10031020Y-11735762D02*
X10031020Y-11783381D01*
X10031020Y-11783381D02*
X10021496Y-11802429D01*
X10021496Y-11802429D02*
X10011972Y-11811952D01*
X10011972Y-11811952D02*
X9992925Y-11821476D01*
X9992925Y-11821476D02*
X9945306Y-11821476D01*
X9945306Y-11821476D02*
X9926258Y-11811952D01*
X9926258Y-11811952D02*
X9916734Y-11802429D01*
X10202449Y-11688143D02*
X10202449Y-11821476D01*
X10154830Y-11611952D02*
X10107211Y-11754810D01*
X10107211Y-11754810D02*
X10231020Y-11754810D01*
X10345306Y-11621476D02*
X10364353Y-11621476D01*
X10364353Y-11621476D02*
X10383401Y-11631000D01*
X10383401Y-11631000D02*
X10392925Y-11640524D01*
X10392925Y-11640524D02*
X10402449Y-11659572D01*
X10402449Y-11659572D02*
X10411972Y-11697667D01*
X10411972Y-11697667D02*
X10411972Y-11745286D01*
X10411972Y-11745286D02*
X10402449Y-11783381D01*
X10402449Y-11783381D02*
X10392925Y-11802429D01*
X10392925Y-11802429D02*
X10383401Y-11811952D01*
X10383401Y-11811952D02*
X10364353Y-11821476D01*
X10364353Y-11821476D02*
X10345306Y-11821476D01*
X10345306Y-11821476D02*
X10326258Y-11811952D01*
X10326258Y-11811952D02*
X10316734Y-11802429D01*
X10316734Y-11802429D02*
X10307211Y-11783381D01*
X10307211Y-11783381D02*
X10297687Y-11745286D01*
X10297687Y-11745286D02*
X10297687Y-11697667D01*
X10297687Y-11697667D02*
X10307211Y-11659572D01*
X10307211Y-11659572D02*
X10316734Y-11640524D01*
X10316734Y-11640524D02*
X10326258Y-11631000D01*
X10326258Y-11631000D02*
X10345306Y-11621476D01*
X10497687Y-11821476D02*
X10497687Y-11688143D01*
X10497687Y-11707191D02*
X10507211Y-11697667D01*
X10507211Y-11697667D02*
X10526258Y-11688143D01*
X10526258Y-11688143D02*
X10554830Y-11688143D01*
X10554830Y-11688143D02*
X10573877Y-11697667D01*
X10573877Y-11697667D02*
X10583401Y-11716714D01*
X10583401Y-11716714D02*
X10583401Y-11821476D01*
X10583401Y-11716714D02*
X10592925Y-11697667D01*
X10592925Y-11697667D02*
X10611972Y-11688143D01*
X10611972Y-11688143D02*
X10640544Y-11688143D01*
X10640544Y-11688143D02*
X10659592Y-11697667D01*
X10659592Y-11697667D02*
X10669115Y-11716714D01*
X10669115Y-11716714D02*
X10669115Y-11821476D01*
X10764353Y-11821476D02*
X10764353Y-11688143D01*
X10764353Y-11707191D02*
X10773877Y-11697667D01*
X10773877Y-11697667D02*
X10792925Y-11688143D01*
X10792925Y-11688143D02*
X10821496Y-11688143D01*
X10821496Y-11688143D02*
X10840544Y-11697667D01*
X10840544Y-11697667D02*
X10850068Y-11716714D01*
X10850068Y-11716714D02*
X10850068Y-11821476D01*
X10850068Y-11716714D02*
X10859592Y-11697667D01*
X10859592Y-11697667D02*
X10878639Y-11688143D01*
X10878639Y-11688143D02*
X10907211Y-11688143D01*
X10907211Y-11688143D02*
X10926258Y-11697667D01*
X10926258Y-11697667D02*
X10935782Y-11716714D01*
X10935782Y-11716714D02*
X10935782Y-11821476D01*
X11293877Y-11611952D02*
X11122449Y-11869095D01*
X11518639Y-11621476D02*
X11537687Y-11621476D01*
X11537687Y-11621476D02*
X11556734Y-11631000D01*
X11556734Y-11631000D02*
X11566258Y-11640524D01*
X11566258Y-11640524D02*
X11575782Y-11659572D01*
X11575782Y-11659572D02*
X11585306Y-11697667D01*
X11585306Y-11697667D02*
X11585306Y-11745286D01*
X11585306Y-11745286D02*
X11575782Y-11783381D01*
X11575782Y-11783381D02*
X11566258Y-11802429D01*
X11566258Y-11802429D02*
X11556734Y-11811952D01*
X11556734Y-11811952D02*
X11537687Y-11821476D01*
X11537687Y-11821476D02*
X11518639Y-11821476D01*
X11518639Y-11821476D02*
X11499591Y-11811952D01*
X11499591Y-11811952D02*
X11490068Y-11802429D01*
X11490068Y-11802429D02*
X11480544Y-11783381D01*
X11480544Y-11783381D02*
X11471020Y-11745286D01*
X11471020Y-11745286D02*
X11471020Y-11697667D01*
X11471020Y-11697667D02*
X11480544Y-11659572D01*
X11480544Y-11659572D02*
X11490068Y-11640524D01*
X11490068Y-11640524D02*
X11499591Y-11631000D01*
X11499591Y-11631000D02*
X11518639Y-11621476D01*
X11671020Y-11802429D02*
X11680544Y-11811952D01*
X11680544Y-11811952D02*
X11671020Y-11821476D01*
X11671020Y-11821476D02*
X11661496Y-11811952D01*
X11661496Y-11811952D02*
X11671020Y-11802429D01*
X11671020Y-11802429D02*
X11671020Y-11821476D01*
X11871020Y-11821476D02*
X11756734Y-11821476D01*
X11813877Y-11821476D02*
X11813877Y-11621476D01*
X11813877Y-11621476D02*
X11794830Y-11650048D01*
X11794830Y-11650048D02*
X11775782Y-11669095D01*
X11775782Y-11669095D02*
X11756734Y-11678619D01*
X11994830Y-11621476D02*
X12013877Y-11621476D01*
X12013877Y-11621476D02*
X12032925Y-11631000D01*
X12032925Y-11631000D02*
X12042449Y-11640524D01*
X12042449Y-11640524D02*
X12051972Y-11659572D01*
X12051972Y-11659572D02*
X12061496Y-11697667D01*
X12061496Y-11697667D02*
X12061496Y-11745286D01*
X12061496Y-11745286D02*
X12051972Y-11783381D01*
X12051972Y-11783381D02*
X12042449Y-11802429D01*
X12042449Y-11802429D02*
X12032925Y-11811952D01*
X12032925Y-11811952D02*
X12013877Y-11821476D01*
X12013877Y-11821476D02*
X11994830Y-11821476D01*
X11994830Y-11821476D02*
X11975782Y-11811952D01*
X11975782Y-11811952D02*
X11966258Y-11802429D01*
X11966258Y-11802429D02*
X11956734Y-11783381D01*
X11956734Y-11783381D02*
X11947211Y-11745286D01*
X11947211Y-11745286D02*
X11947211Y-11697667D01*
X11947211Y-11697667D02*
X11956734Y-11659572D01*
X11956734Y-11659572D02*
X11966258Y-11640524D01*
X11966258Y-11640524D02*
X11975782Y-11631000D01*
X11975782Y-11631000D02*
X11994830Y-11621476D01*
X12185306Y-11621476D02*
X12204353Y-11621476D01*
X12204353Y-11621476D02*
X12223401Y-11631000D01*
X12223401Y-11631000D02*
X12232925Y-11640524D01*
X12232925Y-11640524D02*
X12242449Y-11659572D01*
X12242449Y-11659572D02*
X12251972Y-11697667D01*
X12251972Y-11697667D02*
X12251972Y-11745286D01*
X12251972Y-11745286D02*
X12242449Y-11783381D01*
X12242449Y-11783381D02*
X12232925Y-11802429D01*
X12232925Y-11802429D02*
X12223401Y-11811952D01*
X12223401Y-11811952D02*
X12204353Y-11821476D01*
X12204353Y-11821476D02*
X12185306Y-11821476D01*
X12185306Y-11821476D02*
X12166258Y-11811952D01*
X12166258Y-11811952D02*
X12156734Y-11802429D01*
X12156734Y-11802429D02*
X12147211Y-11783381D01*
X12147211Y-11783381D02*
X12137687Y-11745286D01*
X12137687Y-11745286D02*
X12137687Y-11697667D01*
X12137687Y-11697667D02*
X12147211Y-11659572D01*
X12147211Y-11659572D02*
X12156734Y-11640524D01*
X12156734Y-11640524D02*
X12166258Y-11631000D01*
X12166258Y-11631000D02*
X12185306Y-11621476D01*
X12375782Y-11621476D02*
X12394830Y-11621476D01*
X12394830Y-11621476D02*
X12413877Y-11631000D01*
X12413877Y-11631000D02*
X12423401Y-11640524D01*
X12423401Y-11640524D02*
X12432925Y-11659572D01*
X12432925Y-11659572D02*
X12442449Y-11697667D01*
X12442449Y-11697667D02*
X12442449Y-11745286D01*
X12442449Y-11745286D02*
X12432925Y-11783381D01*
X12432925Y-11783381D02*
X12423401Y-11802429D01*
X12423401Y-11802429D02*
X12413877Y-11811952D01*
X12413877Y-11811952D02*
X12394830Y-11821476D01*
X12394830Y-11821476D02*
X12375782Y-11821476D01*
X12375782Y-11821476D02*
X12356734Y-11811952D01*
X12356734Y-11811952D02*
X12347211Y-11802429D01*
X12347211Y-11802429D02*
X12337687Y-11783381D01*
X12337687Y-11783381D02*
X12328163Y-11745286D01*
X12328163Y-11745286D02*
X12328163Y-11697667D01*
X12328163Y-11697667D02*
X12337687Y-11659572D01*
X12337687Y-11659572D02*
X12347211Y-11640524D01*
X12347211Y-11640524D02*
X12356734Y-11631000D01*
X12356734Y-11631000D02*
X12375782Y-11621476D01*
X12518639Y-11621476D02*
X12518639Y-11659572D01*
X12594830Y-11621476D02*
X12594830Y-11659572D01*
X12857687Y-11897667D02*
X12848163Y-11888143D01*
X12848163Y-11888143D02*
X12829115Y-11859572D01*
X12829115Y-11859572D02*
X12819592Y-11840524D01*
X12819592Y-11840524D02*
X12810068Y-11811952D01*
X12810068Y-11811952D02*
X12800544Y-11764333D01*
X12800544Y-11764333D02*
X12800544Y-11726238D01*
X12800544Y-11726238D02*
X12810068Y-11678619D01*
X12810068Y-11678619D02*
X12819592Y-11650048D01*
X12819592Y-11650048D02*
X12829115Y-11631000D01*
X12829115Y-11631000D02*
X12848163Y-11602429D01*
X12848163Y-11602429D02*
X12857687Y-11592905D01*
X12924353Y-11640524D02*
X12933877Y-11631000D01*
X12933877Y-11631000D02*
X12952925Y-11621476D01*
X12952925Y-11621476D02*
X13000544Y-11621476D01*
X13000544Y-11621476D02*
X13019592Y-11631000D01*
X13019592Y-11631000D02*
X13029115Y-11640524D01*
X13029115Y-11640524D02*
X13038639Y-11659572D01*
X13038639Y-11659572D02*
X13038639Y-11678619D01*
X13038639Y-11678619D02*
X13029115Y-11707191D01*
X13029115Y-11707191D02*
X12914830Y-11821476D01*
X12914830Y-11821476D02*
X13038639Y-11821476D01*
X13244353Y-11821476D02*
X13244353Y-11621476D01*
X13330068Y-11821476D02*
X13330068Y-11716714D01*
X13330068Y-11716714D02*
X13320544Y-11697667D01*
X13320544Y-11697667D02*
X13301496Y-11688143D01*
X13301496Y-11688143D02*
X13272925Y-11688143D01*
X13272925Y-11688143D02*
X13253877Y-11697667D01*
X13253877Y-11697667D02*
X13244353Y-11707191D01*
X13453877Y-11821476D02*
X13434830Y-11811952D01*
X13434830Y-11811952D02*
X13425306Y-11802429D01*
X13425306Y-11802429D02*
X13415782Y-11783381D01*
X13415782Y-11783381D02*
X13415782Y-11726238D01*
X13415782Y-11726238D02*
X13425306Y-11707191D01*
X13425306Y-11707191D02*
X13434830Y-11697667D01*
X13434830Y-11697667D02*
X13453877Y-11688143D01*
X13453877Y-11688143D02*
X13482449Y-11688143D01*
X13482449Y-11688143D02*
X13501496Y-11697667D01*
X13501496Y-11697667D02*
X13511020Y-11707191D01*
X13511020Y-11707191D02*
X13520544Y-11726238D01*
X13520544Y-11726238D02*
X13520544Y-11783381D01*
X13520544Y-11783381D02*
X13511020Y-11802429D01*
X13511020Y-11802429D02*
X13501496Y-11811952D01*
X13501496Y-11811952D02*
X13482449Y-11821476D01*
X13482449Y-11821476D02*
X13453877Y-11821476D01*
X13634830Y-11821476D02*
X13615782Y-11811952D01*
X13615782Y-11811952D02*
X13606258Y-11792905D01*
X13606258Y-11792905D02*
X13606258Y-11621476D01*
X13787211Y-11811952D02*
X13768163Y-11821476D01*
X13768163Y-11821476D02*
X13730068Y-11821476D01*
X13730068Y-11821476D02*
X13711020Y-11811952D01*
X13711020Y-11811952D02*
X13701496Y-11792905D01*
X13701496Y-11792905D02*
X13701496Y-11716714D01*
X13701496Y-11716714D02*
X13711020Y-11697667D01*
X13711020Y-11697667D02*
X13730068Y-11688143D01*
X13730068Y-11688143D02*
X13768163Y-11688143D01*
X13768163Y-11688143D02*
X13787211Y-11697667D01*
X13787211Y-11697667D02*
X13796734Y-11716714D01*
X13796734Y-11716714D02*
X13796734Y-11735762D01*
X13796734Y-11735762D02*
X13701496Y-11754810D01*
X13872925Y-11811952D02*
X13891973Y-11821476D01*
X13891973Y-11821476D02*
X13930068Y-11821476D01*
X13930068Y-11821476D02*
X13949115Y-11811952D01*
X13949115Y-11811952D02*
X13958639Y-11792905D01*
X13958639Y-11792905D02*
X13958639Y-11783381D01*
X13958639Y-11783381D02*
X13949115Y-11764333D01*
X13949115Y-11764333D02*
X13930068Y-11754810D01*
X13930068Y-11754810D02*
X13901496Y-11754810D01*
X13901496Y-11754810D02*
X13882449Y-11745286D01*
X13882449Y-11745286D02*
X13872925Y-11726238D01*
X13872925Y-11726238D02*
X13872925Y-11716714D01*
X13872925Y-11716714D02*
X13882449Y-11697667D01*
X13882449Y-11697667D02*
X13901496Y-11688143D01*
X13901496Y-11688143D02*
X13930068Y-11688143D01*
X13930068Y-11688143D02*
X13949115Y-11697667D01*
X14025306Y-11897667D02*
X14034830Y-11888143D01*
X14034830Y-11888143D02*
X14053877Y-11859572D01*
X14053877Y-11859572D02*
X14063401Y-11840524D01*
X14063401Y-11840524D02*
X14072925Y-11811952D01*
X14072925Y-11811952D02*
X14082449Y-11764333D01*
X14082449Y-11764333D02*
X14082449Y-11726238D01*
X14082449Y-11726238D02*
X14072925Y-11678619D01*
X14072925Y-11678619D02*
X14063401Y-11650048D01*
X14063401Y-11650048D02*
X14053877Y-11631000D01*
X14053877Y-11631000D02*
X14034830Y-11602429D01*
X14034830Y-11602429D02*
X14025306Y-11592905D01*
X14354830Y-11897667D02*
X14345306Y-11888143D01*
X14345306Y-11888143D02*
X14326258Y-11859572D01*
X14326258Y-11859572D02*
X14316734Y-11840524D01*
X14316734Y-11840524D02*
X14307211Y-11811952D01*
X14307211Y-11811952D02*
X14297687Y-11764333D01*
X14297687Y-11764333D02*
X14297687Y-11726238D01*
X14297687Y-11726238D02*
X14307211Y-11678619D01*
X14307211Y-11678619D02*
X14316734Y-11650048D01*
X14316734Y-11650048D02*
X14326258Y-11631000D01*
X14326258Y-11631000D02*
X14345306Y-11602429D01*
X14345306Y-11602429D02*
X14354830Y-11592905D01*
X14431020Y-11688143D02*
X14431020Y-11821476D01*
X14431020Y-11707191D02*
X14440544Y-11697667D01*
X14440544Y-11697667D02*
X14459592Y-11688143D01*
X14459592Y-11688143D02*
X14488163Y-11688143D01*
X14488163Y-11688143D02*
X14507211Y-11697667D01*
X14507211Y-11697667D02*
X14516734Y-11716714D01*
X14516734Y-11716714D02*
X14516734Y-11821476D01*
X14640544Y-11821476D02*
X14621496Y-11811952D01*
X14621496Y-11811952D02*
X14611973Y-11802429D01*
X14611973Y-11802429D02*
X14602449Y-11783381D01*
X14602449Y-11783381D02*
X14602449Y-11726238D01*
X14602449Y-11726238D02*
X14611973Y-11707191D01*
X14611973Y-11707191D02*
X14621496Y-11697667D01*
X14621496Y-11697667D02*
X14640544Y-11688143D01*
X14640544Y-11688143D02*
X14669115Y-11688143D01*
X14669115Y-11688143D02*
X14688163Y-11697667D01*
X14688163Y-11697667D02*
X14697687Y-11707191D01*
X14697687Y-11707191D02*
X14707211Y-11726238D01*
X14707211Y-11726238D02*
X14707211Y-11783381D01*
X14707211Y-11783381D02*
X14697687Y-11802429D01*
X14697687Y-11802429D02*
X14688163Y-11811952D01*
X14688163Y-11811952D02*
X14669115Y-11821476D01*
X14669115Y-11821476D02*
X14640544Y-11821476D01*
X14764354Y-11688143D02*
X14840544Y-11688143D01*
X14792925Y-11621476D02*
X14792925Y-11792905D01*
X14792925Y-11792905D02*
X14802449Y-11811952D01*
X14802449Y-11811952D02*
X14821496Y-11821476D01*
X14821496Y-11821476D02*
X14840544Y-11821476D01*
X15027211Y-11688143D02*
X15027211Y-11888143D01*
X15027211Y-11697667D02*
X15046258Y-11688143D01*
X15046258Y-11688143D02*
X15084354Y-11688143D01*
X15084354Y-11688143D02*
X15103401Y-11697667D01*
X15103401Y-11697667D02*
X15112925Y-11707191D01*
X15112925Y-11707191D02*
X15122449Y-11726238D01*
X15122449Y-11726238D02*
X15122449Y-11783381D01*
X15122449Y-11783381D02*
X15112925Y-11802429D01*
X15112925Y-11802429D02*
X15103401Y-11811952D01*
X15103401Y-11811952D02*
X15084354Y-11821476D01*
X15084354Y-11821476D02*
X15046258Y-11821476D01*
X15046258Y-11821476D02*
X15027211Y-11811952D01*
X15236734Y-11821476D02*
X15217687Y-11811952D01*
X15217687Y-11811952D02*
X15208163Y-11792905D01*
X15208163Y-11792905D02*
X15208163Y-11621476D01*
X15398639Y-11821476D02*
X15398639Y-11716714D01*
X15398639Y-11716714D02*
X15389115Y-11697667D01*
X15389115Y-11697667D02*
X15370068Y-11688143D01*
X15370068Y-11688143D02*
X15331973Y-11688143D01*
X15331973Y-11688143D02*
X15312925Y-11697667D01*
X15398639Y-11811952D02*
X15379592Y-11821476D01*
X15379592Y-11821476D02*
X15331973Y-11821476D01*
X15331973Y-11821476D02*
X15312925Y-11811952D01*
X15312925Y-11811952D02*
X15303401Y-11792905D01*
X15303401Y-11792905D02*
X15303401Y-11773857D01*
X15303401Y-11773857D02*
X15312925Y-11754810D01*
X15312925Y-11754810D02*
X15331973Y-11745286D01*
X15331973Y-11745286D02*
X15379592Y-11745286D01*
X15379592Y-11745286D02*
X15398639Y-11735762D01*
X15465306Y-11688143D02*
X15541496Y-11688143D01*
X15493877Y-11621476D02*
X15493877Y-11792905D01*
X15493877Y-11792905D02*
X15503401Y-11811952D01*
X15503401Y-11811952D02*
X15522449Y-11821476D01*
X15522449Y-11821476D02*
X15541496Y-11821476D01*
X15684354Y-11811952D02*
X15665306Y-11821476D01*
X15665306Y-11821476D02*
X15627211Y-11821476D01*
X15627211Y-11821476D02*
X15608163Y-11811952D01*
X15608163Y-11811952D02*
X15598639Y-11792905D01*
X15598639Y-11792905D02*
X15598639Y-11716714D01*
X15598639Y-11716714D02*
X15608163Y-11697667D01*
X15608163Y-11697667D02*
X15627211Y-11688143D01*
X15627211Y-11688143D02*
X15665306Y-11688143D01*
X15665306Y-11688143D02*
X15684354Y-11697667D01*
X15684354Y-11697667D02*
X15693877Y-11716714D01*
X15693877Y-11716714D02*
X15693877Y-11735762D01*
X15693877Y-11735762D02*
X15598639Y-11754810D01*
X15865306Y-11821476D02*
X15865306Y-11621476D01*
X15865306Y-11811952D02*
X15846258Y-11821476D01*
X15846258Y-11821476D02*
X15808163Y-11821476D01*
X15808163Y-11821476D02*
X15789115Y-11811952D01*
X15789115Y-11811952D02*
X15779592Y-11802429D01*
X15779592Y-11802429D02*
X15770068Y-11783381D01*
X15770068Y-11783381D02*
X15770068Y-11726238D01*
X15770068Y-11726238D02*
X15779592Y-11707191D01*
X15779592Y-11707191D02*
X15789115Y-11697667D01*
X15789115Y-11697667D02*
X15808163Y-11688143D01*
X15808163Y-11688143D02*
X15846258Y-11688143D01*
X15846258Y-11688143D02*
X15865306Y-11697667D01*
X15941496Y-11897667D02*
X15951020Y-11888143D01*
X15951020Y-11888143D02*
X15970068Y-11859572D01*
X15970068Y-11859572D02*
X15979592Y-11840524D01*
X15979592Y-11840524D02*
X15989115Y-11811952D01*
X15989115Y-11811952D02*
X15998639Y-11764333D01*
X15998639Y-11764333D02*
X15998639Y-11726238D01*
X15998639Y-11726238D02*
X15989115Y-11678619D01*
X15989115Y-11678619D02*
X15979592Y-11650048D01*
X15979592Y-11650048D02*
X15970068Y-11631000D01*
X15970068Y-11631000D02*
X15951020Y-11602429D01*
X15951020Y-11602429D02*
X15941496Y-11592905D01*
M02*
