%TF.GenerationSoftware,KiCad,Pcbnew,(7.0.0-0)*%
%TF.CreationDate,2023-06-13T14:54:47-07:00*%
%TF.ProjectId,ssrov-kicad-openctd,7373726f-762d-46b6-9963-61642d6f7065,rev?*%
%TF.SameCoordinates,Original*%
%TF.FileFunction,Soldermask,Top*%
%TF.FilePolarity,Negative*%
%FSLAX46Y46*%
G04 Gerber Fmt 4.6, Leading zero omitted, Abs format (unit mm)*
G04 Created by KiCad (PCBNEW (7.0.0-0)) date 2023-06-13 14:54:47*
%MOMM*%
%LPD*%
G01*
G04 APERTURE LIST*
G04 Aperture macros list*
%AMFreePoly0*
4,1,19,0.500000,-0.750000,0.000000,-0.750000,0.000000,-0.744911,-0.071157,-0.744911,-0.207708,-0.704816,-0.327430,-0.627875,-0.420627,-0.520320,-0.479746,-0.390866,-0.500000,-0.250000,-0.500000,0.250000,-0.479746,0.390866,-0.420627,0.520320,-0.327430,0.627875,-0.207708,0.704816,-0.071157,0.744911,0.000000,0.744911,0.000000,0.750000,0.500000,0.750000,0.500000,-0.750000,0.500000,-0.750000,
$1*%
%AMFreePoly1*
4,1,19,0.000000,0.744911,0.071157,0.744911,0.207708,0.704816,0.327430,0.627875,0.420627,0.520320,0.479746,0.390866,0.500000,0.250000,0.500000,-0.250000,0.479746,-0.390866,0.420627,-0.520320,0.327430,-0.627875,0.207708,-0.704816,0.071157,-0.744911,0.000000,-0.744911,0.000000,-0.750000,-0.500000,-0.750000,-0.500000,0.750000,0.000000,0.750000,0.000000,0.744911,0.000000,0.744911,
$1*%
G04 Aperture macros list end*
%ADD10R,1.500000X1.050000*%
%ADD11O,1.500000X1.050000*%
%ADD12C,1.600000*%
%ADD13O,1.600000X1.600000*%
%ADD14R,1.508000X1.508000*%
%ADD15C,1.508000*%
%ADD16C,3.200000*%
%ADD17C,2.540000*%
%ADD18R,1.600000X1.600000*%
%ADD19R,1.651000X1.651000*%
%ADD20C,1.651000*%
%ADD21R,1.700000X1.700000*%
%ADD22O,1.700000X1.700000*%
%ADD23FreePoly0,180.000000*%
%ADD24FreePoly1,180.000000*%
%ADD25R,2.200000X2.200000*%
%ADD26O,2.200000X2.200000*%
%ADD27C,4.016000*%
%ADD28R,1.650000X1.650000*%
%ADD29C,1.650000*%
%ADD30R,1.800000X1.800000*%
%ADD31C,1.800000*%
%ADD32C,0.800000*%
G04 APERTURE END LIST*
%TO.C,JP1*%
G36*
X130160000Y-87676000D02*
G01*
X129660000Y-87676000D01*
X129660000Y-87076000D01*
X130160000Y-87076000D01*
X130160000Y-87676000D01*
G37*
%TD*%
D10*
%TO.C,nMOS2*%
X131317999Y-98297999D03*
D11*
X131317999Y-99567999D03*
X131317999Y-100837999D03*
%TD*%
D12*
%TO.C,TP23*%
X105410000Y-107442000D03*
%TD*%
%TO.C,PWR-R2*%
X116586000Y-95504000D03*
D13*
X116585999Y-87883999D03*
%TD*%
D12*
%TO.C,D6-R4*%
X126492000Y-95504000D03*
D13*
X126491999Y-87883999D03*
%TD*%
D14*
%TO.C,U2*%
X187705999Y-103373999D03*
D15*
X187706000Y-100834000D03*
X187706000Y-98294000D03*
X187706000Y-95754000D03*
X187706000Y-93214000D03*
X187706000Y-90674000D03*
X187706000Y-88134000D03*
X187706000Y-85594000D03*
D16*
X200406000Y-103374000D03*
X200406000Y-85594000D03*
%TD*%
D12*
%TO.C,TP11*%
X135879090Y-81280000D03*
%TD*%
D17*
%TO.C,U3*%
X96530000Y-103923000D03*
X96530000Y-86143000D03*
D18*
X100339999Y-104938999D03*
D12*
X102880000Y-104939000D03*
X105420000Y-104939000D03*
X107960000Y-104939000D03*
X110500000Y-104939000D03*
X113040000Y-104939000D03*
X115580000Y-104939000D03*
X118120000Y-104939000D03*
X120660000Y-104939000D03*
X123200000Y-104939000D03*
X125740000Y-104939000D03*
X128280000Y-104939000D03*
X130820000Y-104939000D03*
X133360000Y-104939000D03*
X135900000Y-104939000D03*
X138440000Y-104939000D03*
X138440000Y-84619000D03*
X135900000Y-84619000D03*
X133360000Y-84619000D03*
X130820000Y-84619000D03*
X128280000Y-84619000D03*
X125740000Y-84619000D03*
X123200000Y-84619000D03*
X120660000Y-84619000D03*
X118120000Y-84619000D03*
X115580000Y-84619000D03*
X113040000Y-84619000D03*
X110500000Y-84619000D03*
%TD*%
D19*
%TO.C,U1*%
X166098999Y-85539999D03*
D20*
X168639000Y-85540000D03*
X171179000Y-85540000D03*
D19*
X171178999Y-103319999D03*
D20*
X168639000Y-103320000D03*
X166099000Y-103320000D03*
%TD*%
D12*
%TO.C,TP15*%
X183896000Y-95754000D03*
%TD*%
%TO.C,TP19*%
X166042000Y-106955000D03*
%TD*%
%TO.C,TP5*%
X120573636Y-81280000D03*
%TD*%
%TO.C,TP26*%
X113030000Y-107442000D03*
%TD*%
%TO.C,TP32*%
X128270000Y-107442000D03*
%TD*%
%TO.C,TP6*%
X123124545Y-81280000D03*
%TD*%
%TO.C,TP36*%
X138430000Y-107442000D03*
%TD*%
%TO.C,TP7*%
X125675454Y-81280000D03*
%TD*%
%TO.C,TP10*%
X133328181Y-81280000D03*
%TD*%
%TO.C,TP13*%
X168656000Y-81788000D03*
%TD*%
%TO.C,TP43*%
X195834000Y-107950000D03*
%TD*%
%TO.C,TP44*%
X202184000Y-80772000D03*
%TD*%
%TO.C,TP16*%
X183896000Y-98294000D03*
%TD*%
%TO.C,TP34*%
X133350000Y-107442000D03*
%TD*%
%TO.C,TP30*%
X123190000Y-107442000D03*
%TD*%
D21*
%TO.C,FastCharge_Conn1*%
X101016000Y-98309998D03*
D22*
X101016000Y-95769998D03*
X101016000Y-93229998D03*
X101016000Y-90689998D03*
%TD*%
D12*
%TO.C,PWR-R1*%
X111506000Y-95504000D03*
D13*
X111505999Y-87883999D03*
%TD*%
D12*
%TO.C,TP33*%
X130810000Y-107442000D03*
%TD*%
%TO.C,TP35*%
X135890000Y-107442000D03*
%TD*%
%TO.C,TP2*%
X112920909Y-81280000D03*
%TD*%
D23*
%TO.C,JP1*%
X130556000Y-87376000D03*
D24*
X129256000Y-87376000D03*
%TD*%
D25*
%TO.C,D1*%
X106425999Y-101599999D03*
D26*
X116585999Y-101599999D03*
%TD*%
D12*
%TO.C,TP24*%
X107950000Y-107442000D03*
%TD*%
%TO.C,TP12*%
X138430000Y-81280000D03*
%TD*%
%TO.C,TP29*%
X120650000Y-107442000D03*
%TD*%
%TO.C,TP21*%
X100330000Y-107442000D03*
%TD*%
%TO.C,TP9*%
X130777272Y-81280000D03*
%TD*%
%TO.C,TP4*%
X118022727Y-81280000D03*
%TD*%
%TO.C,TP14*%
X171196000Y-81788000D03*
%TD*%
%TO.C,TP28*%
X118110000Y-107442000D03*
%TD*%
%TO.C,TP18*%
X183896000Y-103374000D03*
%TD*%
%TO.C,PWR--R7*%
X106426000Y-98298000D03*
D13*
X114045999Y-98297999D03*
%TD*%
D12*
%TO.C,TP1*%
X110370000Y-81280000D03*
%TD*%
D10*
%TO.C,nMOS1*%
X124205999Y-98297999D03*
D11*
X124205999Y-99567999D03*
X124205999Y-100837999D03*
%TD*%
D12*
%TO.C,TP25*%
X110490000Y-107442000D03*
%TD*%
%TO.C,TP31*%
X125730000Y-107442000D03*
%TD*%
%TO.C,TP20*%
X171196000Y-106955000D03*
%TD*%
%TO.C,TP22*%
X102870000Y-107442000D03*
%TD*%
%TO.C,TP17*%
X183896000Y-100834000D03*
%TD*%
%TO.C,LED-R3*%
X121666000Y-87884000D03*
D13*
X121665999Y-95503999D03*
%TD*%
D12*
%TO.C,SDA-R6*%
X138430000Y-95504000D03*
D13*
X138429999Y-87883999D03*
%TD*%
D12*
%TO.C,TP3*%
X115471818Y-81280000D03*
%TD*%
%TO.C,TP8*%
X128226363Y-81280000D03*
%TD*%
%TO.C,TP41*%
X168608000Y-106974000D03*
%TD*%
%TO.C,TP42*%
X202438000Y-107950000D03*
%TD*%
%TO.C,TP27*%
X115570000Y-107442000D03*
%TD*%
%TO.C,SCL-R5*%
X133350000Y-95504000D03*
D13*
X133349999Y-87883999D03*
%TD*%
D27*
%TO.C,BNO055_IMU1*%
X206248000Y-84344000D03*
X191008000Y-84344000D03*
X206258000Y-104654000D03*
X191008000Y-104664000D03*
D12*
X206248000Y-88154000D03*
X206248000Y-90694000D03*
X206248000Y-93234000D03*
X206248000Y-95774000D03*
X206248000Y-98314000D03*
X206248000Y-100854000D03*
%TD*%
%TO.C,TP37*%
X183848000Y-85594000D03*
%TD*%
D28*
%TO.C,J1*%
X142493999Y-103123999D03*
D29*
X142494000Y-100584000D03*
X142494000Y-98044000D03*
X142494000Y-95504000D03*
X142494000Y-92964000D03*
X142494000Y-90424000D03*
X142494000Y-87884000D03*
X142494000Y-85344000D03*
%TD*%
D12*
%TO.C,TP38*%
X183896000Y-88134000D03*
%TD*%
D30*
%TO.C,D2*%
X180907999Y-107963999D03*
D31*
X178368000Y-107964000D03*
%TD*%
D12*
%TO.C,TP39*%
X183896000Y-90674000D03*
%TD*%
D21*
%TO.C,J2*%
X157733999Y-103163999D03*
D22*
X157733999Y-100623999D03*
X157733999Y-98083999D03*
X157733999Y-95543999D03*
X157733999Y-93003999D03*
X157733999Y-90463999D03*
X157733999Y-87923999D03*
X157733999Y-85383999D03*
%TD*%
D12*
%TO.C,TP40*%
X183896000Y-93214000D03*
%TD*%
D32*
X174728000Y-81084000D03*
X172212000Y-90200000D03*
X178054000Y-82042000D03*
X167640000Y-90200000D03*
M02*
